<svg width="20" height="18" viewBox="0 0 20 18" fill="none" xmlns="http://www.w3.org/2000/svg">
<path d="M19.0909 7.92H17.1591V2.88C17.1591 1.28925 15.5312 0 13.5227 0H6.47727C4.46875 0 2.84091 1.28925 2.84091 2.88V7.92H0.909091C0.40625 7.92 0 8.24175 0 8.64V17.28C0 17.6783 0.40625 18 0.909091 18H19.0909C19.5938 18 20 17.6783 20 17.28V8.64C20 8.24175 19.5938 7.92 19.0909 7.92ZM4.88636 2.88C4.88636 2.18475 5.59943 1.62 6.47727 1.62H13.5227C14.4006 1.62 15.1136 2.18475 15.1136 2.88V7.92H4.88636V2.88ZM17.9545 16.38H2.04545V9.54H17.9545V16.38ZM9.20455 13.2525V14.445C9.20455 14.544 9.30682 14.625 9.43182 14.625H10.5682C10.6932 14.625 10.7955 14.544 10.7955 14.445V13.2525C11.03 13.1192 11.205 12.9303 11.2954 12.7132C11.3857 12.496 11.3868 12.2618 11.2984 12.0441C11.2099 11.8265 11.0366 11.6366 10.8032 11.502C10.5699 11.3673 10.2887 11.2948 10 11.2948C9.71131 11.2948 9.43007 11.3673 9.19675 11.502C8.96344 11.6366 8.79009 11.8265 8.70165 12.0441C8.61322 12.2618 8.61426 12.496 8.70463 12.7132C8.795 12.9303 8.97004 13.1192 9.20455 13.2525Z" fill="black" fill-opacity="0.4"/>
</svg>
